# xmcd
# 
# Track frame offsets:
#     182
#     24700
#     47615
#     72325
#     79887
#     99412
#     109960
#     132312
#     149462
#     167475
#     182540
# 
# Disc length: 2622
# 
# Revision: 13
# Processed by: cddbd v1.5.2PL0 Copyright (c) Steve Scherf et al.
# Submitted via: fre:ac v1.0.27
# 
DISCID=950a3c0b
DTITLE=Curtis Mayfield - Superfly (Deluxe 25th Anniversary Edition)
DYEAR=1972
DGENRE=R&B
TTITLE0=Little Child Runnin' Wild
TTITLE1=Pusherman
TTITLE2=Freddie's Dead
TTITLE3=Junkie Chase (Instrumental)
TTITLE4=Give Me Your Love (Love Song)
TTITLE5=Eddie You Should Know Better
TTITLE6=No Thing On Me (Cocaine Song)
TTITLE7=Think (Instrumental)
TTITLE8=Superfly
TTITLE9=Freddie's Dead (Theme From ‘Superfly’) (Single Mix) [Bonus Track]
TTITLE10=Superfly (Single Mix) [Bonus Track]
EXTD=
EXTT0=
EXTT1=
EXTT2=
EXTT3=
EXTT4=
EXTT5=
EXTT6=
EXTT7=
EXTT8=
EXTT9=
EXTT10=
PLAYORDER=
